<svg xmlns="http://www.w3.org/2000/svg" version="1.1" xmlns:xlink="http://www.w3.org/1999/xlink" xmlns:svgjs="http://svgjs.dev/svgjs" width="1440" height="560" preserveAspectRatio="none" viewBox="0 0 1440 560">
    <g mask="url(&quot;#SvgjsMask1011&quot;)" fill="none">
        <rect width="1440" height="560" x="0" y="0" fill="rgba(220, 239, 206, 1)"></rect>
        <path d="M19.485444236986527 191.48245908179078L61.18153656339618 319.8098359993211 147.81282115451683 149.78636675538112z" fill="rgba(12, 164, 78, 0.4)" class="triangle-float3"></path>
        <path d="M-37.26 97.2 a158.23 158.23 0 1 0 316.46 0 a158.23 158.23 0 1 0 -316.46 0z" fill="rgba(12, 164, 78, 0.4)" class="triangle-float1"></path>
        <path d="M55.65 44.9 a155.25 155.25 0 1 0 310.5 0 a155.25 155.25 0 1 0 -310.5 0z" fill="rgba(12, 164, 78, 0.4)" class="triangle-float3"></path>
        <path d="M270.638,601.98C308.793,602.802,341.278,576.143,359.409,542.561C376.617,510.687,374.764,473.004,357.445,441.19C339.253,407.773,308.68,380.148,270.638,379.497C231.634,378.829,196.437,403.473,178.524,438.127C161.919,470.25,170.532,507.353,188.252,538.874C206.421,571.193,233.571,601.182,270.638,601.98" fill="rgba(12, 164, 78, 0.4)" class="triangle-float3"></path>
        <path d="M836.39 232.65 a152.58 152.58 0 1 0 305.16 0 a152.58 152.58 0 1 0 -305.16 0z" fill="rgba(12, 164, 78, 0.4)" class="triangle-float3"></path>
        <path d="M335.727,721.219C394.935,719.374,434.515,666.443,462.319,614.137C488.027,565.775,502.57,507.942,473.906,461.272C446.218,416.191,388.631,408.379,335.727,408.024C281.971,407.663,223.838,414.481,194.3,459.396C162.286,508.075,167.004,571.213,194.694,622.475C223.926,676.592,274.249,723.134,335.727,721.219" fill="rgba(12, 164, 78, 0.4)" class="triangle-float2"></path>
        <path d="M604.803997321492 255.20722192615722L440.12919403711163 167.44666626113252 442.9759972345656 330.5399122135941z" fill="rgba(12, 164, 78, 0.4)" class="triangle-float1"></path>
        <path d="M494.46 462.32 a145.45 145.45 0 1 0 290.9 0 a145.45 145.45 0 1 0 -290.9 0z" fill="rgba(12, 164, 78, 0.4)" class="triangle-float3"></path>
        <path d="M1362.948,348.732C1395.221,348.747,1427.059,336.935,1444.428,309.734C1463.163,280.393,1466.738,242.957,1449.968,212.45C1432.614,180.88,1398.972,161.22,1362.948,161.508C1327.399,161.792,1295.417,182.662,1278.306,213.823C1261.817,243.853,1263.391,280.639,1281.598,309.659C1298.733,336.971,1330.706,348.717,1362.948,348.732" fill="rgba(12, 164, 78, 0.4)" class="triangle-float1"></path>
        <path d="M260.19 414.53 a142.55 142.55 0 1 0 285.1 0 a142.55 142.55 0 1 0 -285.1 0z" fill="rgba(12, 164, 78, 0.4)" class="triangle-float3"></path>
        <path d="M1403.463,737.609C1454.73,738.05,1511.58,725.617,1534.871,679.944C1556.966,636.615,1526,589.442,1499.971,548.356C1476.504,511.314,1447.306,473.286,1403.463,472.522C1358.639,471.741,1324.617,506.815,1300.949,544.889C1275.455,585.902,1253.232,635.083,1275.911,677.717C1299.553,722.163,1353.122,737.176,1403.463,737.609" fill="rgba(12, 164, 78, 0.4)" class="triangle-float2"></path>
    </g>
    <defs>
        <mask id="SvgjsMask1011">
            <rect width="1440" height="560" fill="#ffffff"></rect>
        </mask>
        <style>
            @keyframes float1 {
                    0%{transform: translate(0, 0)}
                    50%{transform: translate(-10px, 0)}
                    100%{transform: translate(0, 0)}
                }

                .triangle-float1 {
                    animation: float1 5s infinite;
                }

                @keyframes float2 {
                    0%{transform: translate(0, 0)}
                    50%{transform: translate(-5px, -5px)}
                    100%{transform: translate(0, 0)}
                }

                .triangle-float2 {
                    animation: float2 4s infinite;
                }

                @keyframes float3 {
                    0%{transform: translate(0, 0)}
                    50%{transform: translate(0, -10px)}
                    100%{transform: translate(0, 0)}
                }

                .triangle-float3 {
                    animation: float3 6s infinite;
                }
        </style>
    </defs>
</svg>